<svg xmlns="http://www.w3.org/2000/svg" width="150" height="110" viewBox="0 0 150 110" fill="none" shape-rendering="geometricPrecision">
  <defs>
    <linearGradient id="shard" x1="0" y1="0" x2="1" y2="1">
      <stop offset="0" stop-color="#F2F6FF" stop-opacity="0.7"/>
      <stop offset="0.25" stop-color="#6F7584" stop-opacity="0.35"/>
      <stop offset="0.75" stop-color="#0D1018"/>
      <stop offset="1" stop-color="#05070C"/>
    </linearGradient>
  </defs>
  <g>
    <path d="M100 14c14 2 26 11 26 23 0 8-6 15-13 22 4 13-2 27-24 30-19 3-33-6-39-19-13-2-23-10-23-21 0-12 11-21 26-24 9-14 26-18 47-11Z" fill="url(#shard)"/>
    <path d="M101 22c6 1 12 5 14 10-7 1-13 4-17 10 0-7-3-13-8-18 3-2 7-3 11-2Z" fill="#FFFFFF" fill-opacity="0.32"/>
    <path d="M84 70c8-3 15-2 22 1-6 6-15 10-26 10 0-5 1-8 4-11Z" fill="#FFFFFF" fill-opacity="0.14"/>
  </g>
</svg>
